<?xml version="1.0" standalone="no"?>
<!DOCTYPE svg PUBLIC "-//W3C//DTD SVG 20010904//EN"
 "http://www.w3.org/TR/2001/REC-SVG-20010904/DTD/svg10.dtd">
<svg version="1.0" xmlns="http://www.w3.org/2000/svg"
 width="1000.000000pt" height="1000.000000pt" viewBox="0 0 1000.000000 1000.000000"
 preserveAspectRatio="xMidYMid meet">
<metadata>
Created by potrace 1.14, written by Peter Selinger 2001-2017
</metadata>
<g transform="translate(0.000000,1000.000000) scale(0.100000,-0.100000)"
fill="#000000" stroke="none">
<path d="M4809 8686 c-2 -2 -33 -7 -69 -11 -135 -14 -308 -69 -513 -165 -45
-20 -102 -47 -127 -58 -25 -11 -85 -39 -135 -62 -49 -23 -110 -51 -135 -62
-124 -56 -384 -175 -450 -205 -41 -19 -113 -52 -160 -73 -47 -21 -134 -61
-194 -89 -59 -28 -110 -51 -112 -51 -2 0 -43 -19 -91 -41 -49 -23 -131 -60
-183 -84 -170 -77 -214 -97 -319 -146 -57 -27 -105 -49 -107 -49 -1 0 -33 -14
-71 -32 -37 -17 -158 -72 -268 -122 -202 -92 -299 -143 -344 -181 -150 -125
-214 -246 -217 -407 -2 -130 31 -218 123 -326 84 -98 169 -151 443 -275 91
-41 194 -88 230 -105 36 -16 157 -71 270 -122 113 -51 209 -96 213 -100 4 -4
-7 -13 -25 -21 -120 -48 -920 -413 -966 -441 -74 -43 -200 -170 -234 -234 -92
-177 -76 -359 48 -525 76 -100 174 -166 389 -264 72 -32 162 -73 200 -91 71
-32 362 -164 445 -202 25 -11 69 -32 99 -45 l53 -25 -38 -20 c-22 -11 -95 -44
-164 -75 -69 -30 -156 -69 -195 -87 -38 -18 -90 -41 -115 -52 -167 -72 -433
-196 -475 -221 -194 -117 -294 -266 -301 -449 -8 -213 113 -386 361 -516 51
-27 200 -96 215 -100 3 -1 42 -19 88 -42 45 -22 84 -40 87 -40 2 0 51 -22 110
-50 59 -27 108 -50 110 -50 2 0 43 -18 92 -41 48 -23 131 -60 184 -84 52 -24
124 -57 160 -73 35 -17 217 -100 404 -185 187 -85 367 -167 400 -182 112 -52
300 -137 400 -182 55 -25 127 -57 160 -73 339 -159 427 -190 640 -224 92 -15
478 -16 555 -2 19 4 58 11 85 17 28 6 61 13 75 15 84 17 205 69 900 386 25 12
72 33 105 48 33 15 86 39 118 54 59 27 74 34 327 148 85 39 184 84 220 100
150 69 261 120 400 183 58 26 132 60 165 75 107 50 197 91 340 155 411 184
478 227 585 370 64 86 90 165 91 270 1 140 -53 261 -164 368 -84 81 -145 114
-617 339 -47 23 -164 79 -260 125 -96 47 -186 89 -200 95 -23 9 -24 10 -6 20
21 12 416 192 631 288 173 77 360 177 411 219 102 83 178 201 199 308 10 50 7
162 -5 200 -39 124 -106 219 -212 300 -88 68 -82 65 -768 373 -162 73 -297
134 -298 135 -4 4 4 8 333 157 121 55 247 112 280 128 33 15 83 38 110 50 281
128 342 165 430 262 94 104 135 204 135 332 0 132 -51 247 -156 353 -77 77
-163 128 -389 231 -196 89 -578 263 -663 303 -46 22 -86 39 -88 39 -2 0 -47
21 -101 46 -54 25 -111 51 -128 59 -16 7 -61 28 -100 45 -38 18 -92 43 -120
55 -27 13 -203 93 -390 178 -187 85 -367 167 -400 182 -33 15 -112 51 -175 80
-439 202 -506 227 -710 261 -44 7 -454 16 -461 10z m346 -571 c38 -3 72 -8 76
-11 4 -2 24 -6 45 -10 42 -6 106 -30 199 -73 33 -16 83 -39 110 -51 28 -13 77
-35 110 -50 33 -15 186 -85 340 -155 154 -70 309 -141 345 -157 200 -92 935
-428 1035 -473 33 -14 87 -39 120 -55 33 -15 105 -48 160 -73 55 -25 143 -65
195 -89 52 -24 110 -50 128 -58 18 -7 29 -16 25 -21 -4 -4 -138 -67 -298 -139
-159 -73 -317 -145 -350 -160 -33 -15 -82 -38 -110 -50 -27 -12 -129 -58 -225
-102 -96 -44 -296 -135 -445 -203 -353 -161 -370 -168 -577 -264 -35 -15 -85
-38 -113 -51 -27 -12 -74 -33 -102 -46 -29 -13 -79 -36 -110 -50 -32 -14 -85
-39 -118 -54 -136 -63 -173 -79 -230 -98 -62 -20 -136 -37 -215 -47 -56 -7
-260 -8 -291 -1 -13 3 -43 8 -67 10 -107 13 -179 40 -441 162 -51 24 -95 44
-97 44 -1 0 -42 18 -91 41 -48 23 -131 60 -183 84 -52 24 -124 57 -160 73 -36
17 -139 64 -230 105 -208 94 -944 429 -1030 469 -36 16 -184 84 -330 150 -146
66 -268 123 -273 127 -4 4 28 22 70 41 43 19 134 60 201 92 68 32 125 58 127
58 2 0 39 16 82 36 43 20 160 74 260 120 100 46 206 94 235 107 29 14 152 70
273 125 121 55 252 115 290 132 39 18 196 90 350 160 154 70 312 142 350 160
39 18 140 64 225 102 85 39 173 78 195 88 57 26 167 50 255 57 41 3 76 6 78 8
4 3 129 -2 207 -10z m-1568 -2646 c494 -225 606 -276 668 -303 33 -15 69 -32
79 -38 72 -40 293 -98 446 -116 148 -18 461 -6 585 22 6 2 28 6 50 10 59 11
210 64 295 103 41 19 199 91 350 160 151 68 313 142 358 164 46 21 85 39 87
39 2 0 47 20 101 46 94 44 98 45 133 31 20 -8 169 -74 331 -147 162 -73 401
-179 530 -237 129 -58 255 -114 280 -126 25 -11 74 -33 109 -49 35 -16 62 -30
60 -33 -2 -2 -58 -28 -124 -58 -162 -73 -652 -297 -745 -340 -71 -32 -345
-157 -455 -207 -110 -50 -196 -89 -383 -176 -40 -19 -74 -34 -76 -34 -2 0 -51
-22 -108 -49 -56 -27 -168 -78 -248 -114 -158 -71 -245 -111 -360 -164 -230
-108 -301 -124 -535 -127 -162 -2 -271 11 -370 45 -61 21 -102 39 -710 317
-192 88 -478 218 -635 290 -349 159 -359 163 -600 274 -107 49 -211 97 -230
105 -40 18 -98 44 -225 103 -49 23 -106 48 -125 56 -19 8 -66 30 -105 48 l-70
34 30 12 c17 6 53 22 80 35 89 42 207 95 210 95 2 0 41 17 87 39 45 21 140 64
210 95 70 31 198 88 285 127 87 39 172 76 188 84 96 42 212 96 225 104 8 6 21
10 27 10 7 1 142 -58 300 -130z m3335 -1773 c51 -24 174 -83 273 -131 99 -48
216 -104 260 -125 45 -21 155 -74 245 -118 91 -43 207 -99 258 -124 70 -33 90
-47 80 -54 -7 -6 -71 -37 -143 -69 -71 -32 -166 -75 -210 -96 -44 -20 -152
-69 -240 -108 -88 -40 -185 -84 -215 -98 -47 -21 -616 -281 -790 -360 -219
-99 -397 -181 -468 -214 -46 -22 -85 -39 -87 -39 -2 0 -50 -22 -107 -48 -56
-27 -146 -68 -198 -91 -52 -23 -103 -47 -113 -52 -55 -30 -212 -75 -296 -85
-186 -21 -402 -2 -549 50 -20 7 -188 82 -372 166 -416 189 -420 191 -505 230
-38 18 -108 49 -155 70 -47 21 -119 54 -160 73 -41 19 -174 80 -295 135 -121
55 -251 114 -290 132 -38 18 -108 49 -155 70 -47 21 -128 58 -180 82 -52 24
-199 91 -327 149 -128 57 -232 106 -232 109 0 3 46 25 102 49 56 25 134 59
173 77 83 38 511 230 599 269 17 7 53 23 80 35 28 13 124 56 214 96 90 41 169
74 176 74 11 0 473 -207 870 -390 302 -139 430 -177 655 -197 135 -12 398 -5
473 12 12 3 33 7 47 9 140 24 247 62 490 174 36 16 115 52 175 80 61 27 137
62 170 77 33 16 177 81 319 146 l260 118 37 -20 c21 -10 80 -39 131 -63z"/>
</g>
</svg>
