<?xml version="1.0" standalone="no"?>
<!DOCTYPE svg PUBLIC "-//W3C//DTD SVG 20010904//EN"
 "http://www.w3.org/TR/2001/REC-SVG-20010904/DTD/svg10.dtd">
<svg version="1.0" xmlns="http://www.w3.org/2000/svg"
 width="700.000000pt" height="700.000000pt" viewBox="0 0 700.000000 700.000000"
 preserveAspectRatio="xMidYMid meet">
<metadata>
Created by potrace 1.14, written by Peter Selinger 2001-2017
</metadata>
<g transform="translate(0.000000,700.000000) scale(0.100000,-0.100000)"
fill="#000000" stroke="none">
<path d="M3410 6342 c-78 -5 -229 -34 -300 -56 -60 -19 -321 -133 -505 -221
-80 -38 -248 -115 -251 -115 -2 0 -52 -22 -110 -50 -58 -27 -107 -50 -109 -50
-2 0 -72 -32 -157 -71 -84 -39 -166 -77 -183 -84 -1002 -456 -991 -451 -1069
-570 -53 -81 -66 -127 -62 -219 3 -107 36 -176 122 -263 52 -51 85 -73 186
-122 110 -53 392 -183 523 -241 28 -12 74 -34 104 -48 l54 -26 -69 -32 c-38
-18 -202 -92 -364 -164 -292 -131 -400 -190 -452 -248 -124 -140 -143 -304
-53 -458 36 -61 132 -143 216 -186 77 -38 95 -47 482 -223 130 -60 234 -111
230 -115 -10 -7 -83 -41 -437 -200 -159 -71 -312 -145 -340 -163 -76 -51 -133
-114 -169 -187 -29 -58 -32 -74 -32 -155 0 -119 28 -181 123 -275 66 -64 156
-117 332 -193 19 -8 64 -28 100 -45 216 -98 307 -140 410 -187 63 -29 241
-110 395 -180 154 -70 312 -142 350 -160 39 -18 90 -42 115 -53 25 -11 151
-68 280 -127 255 -116 311 -138 410 -161 120 -29 194 -37 320 -36 68 0 216 11
240 17 3 1 25 5 50 9 58 11 183 51 240 78 25 11 151 69 280 128 129 59 270
124 313 144 43 20 80 36 82 36 1 0 55 25 120 55 64 30 118 55 120 55 1 0 41
17 87 39 45 21 209 96 363 166 154 69 309 140 345 157 36 16 81 37 100 46 318
143 405 204 464 328 83 173 27 360 -144 486 -51 37 -222 122 -694 346 l-98 46
58 27 c33 14 88 40 124 56 83 39 158 73 295 135 261 118 320 153 393 232 140
152 137 368 -7 516 -79 81 -111 99 -406 230 -71 32 -155 69 -185 83 -30 14
-107 48 -170 77 -63 28 -116 53 -117 54 -2 2 83 43 189 91 106 48 220 100 253
115 33 16 92 42 130 60 237 107 325 176 384 300 22 47 26 68 26 150 0 85 -3
102 -29 155 -18 36 -54 84 -92 122 -60 59 -149 110 -354 201 -25 11 -72 32
-105 47 -33 16 -112 51 -175 80 -220 100 -956 435 -1098 501 -41 19 -75 34
-77 34 -2 0 -45 20 -97 44 -314 148 -393 181 -502 206 -112 25 -291 40 -396
32z m235 -446 c92 -13 177 -48 775 -323 36 -17 86 -40 113 -52 26 -11 68 -31
95 -42 26 -12 139 -64 251 -115 111 -52 204 -94 206 -94 2 0 50 -22 107 -49
56 -26 141 -65 188 -86 47 -21 127 -58 178 -82 52 -23 95 -43 97 -43 1 0 47
-21 101 -46 l98 -46 -30 -13 c-16 -7 -60 -27 -99 -45 -38 -18 -144 -66 -235
-107 -91 -41 -194 -88 -230 -105 -36 -17 -159 -73 -275 -125 -115 -52 -241
-109 -280 -128 -38 -18 -115 -53 -170 -78 -55 -25 -129 -58 -165 -75 -36 -16
-117 -53 -180 -82 -63 -28 -144 -66 -180 -82 -220 -102 -275 -121 -386 -133
-62 -7 -205 -7 -249 0 -73 11 -80 13 -125 25 -37 10 -552 240 -890 397 -47 22
-123 57 -170 78 -47 21 -119 53 -160 72 -41 20 -118 54 -170 78 -52 24 -122
55 -155 70 -155 71 -445 204 -492 225 -29 13 -53 26 -53 29 0 3 143 71 318
150 174 80 349 159 387 177 117 53 417 190 470 214 28 12 84 38 125 57 41 19
197 90 345 158 149 68 299 136 335 153 84 38 127 52 213 66 75 13 209 14 292
2z m-1397 -1960 c31 -13 98 -43 147 -66 50 -24 128 -60 175 -80 47 -21 114
-51 150 -68 421 -194 479 -211 745 -217 288 -7 392 19 765 192 41 19 140 64
220 100 80 36 192 87 249 114 57 27 108 49 113 49 9 0 719 -315 918 -407 41
-19 86 -39 99 -44 13 -5 22 -11 20 -13 -2 -2 -96 -45 -209 -96 -113 -51 -232
-105 -265 -120 -33 -16 -109 -51 -170 -78 -60 -28 -146 -67 -190 -87 -44 -21
-123 -57 -175 -80 -101 -46 -619 -281 -735 -335 -306 -142 -359 -161 -480
-176 -106 -13 -248 -7 -350 16 -42 9 -202 78 -485 208 -36 17 -139 64 -230
105 -91 41 -205 94 -253 116 -49 23 -90 41 -92 41 -1 0 -45 20 -96 44 -52 24
-116 54 -144 66 -204 92 -302 137 -380 174 -49 23 -170 78 -267 121 -97 44
-173 83 -170 86 4 3 147 68 317 144 171 76 337 151 370 166 98 44 166 74 235
104 36 16 69 32 75 37 14 13 31 10 93 -16z m2769 -1457 c92 -45 213 -103 268
-129 55 -26 177 -85 270 -130 94 -45 199 -96 235 -113 l65 -30 -65 -30 c-36
-17 -96 -45 -135 -62 -90 -42 -731 -334 -810 -370 -59 -26 -230 -104 -330
-150 -109 -50 -173 -79 -245 -112 -41 -20 -94 -43 -117 -53 -22 -10 -70 -32
-105 -48 -68 -32 -134 -62 -213 -97 -153 -68 -450 -79 -610 -22 -33 12 -492
220 -1060 479 -71 33 -175 80 -230 105 -55 25 -127 58 -160 73 -33 15 -186 85
-340 155 -154 70 -281 128 -282 129 -2 2 66 33 150 71 189 84 442 198 524 235
33 16 129 58 211 95 l150 67 149 -67 c81 -37 186 -85 233 -107 47 -22 124 -57
172 -79 48 -21 95 -42 105 -48 108 -57 290 -123 393 -140 236 -41 501 -23 691
45 36 13 156 65 265 115 109 50 230 105 269 122 38 18 139 64 225 104 85 39
156 72 157 72 1 1 77 -36 170 -80z"/>
</g>
</svg>
